<?xml version="1.0" encoding="UTF-8"?>
<!-- Generated by Pixelmator Pro 2.4.2 -->
<svg width="64" height="64" viewBox="0 0 64 64" xmlns="http://www.w3.org/2000/svg">
    <path id="Path" fill="#e30613" stroke="none" d="M 0 0 L 64 0 L 64 64 L 0 64 Z"/>
    <path id="path1" fill="#ffffff" stroke="none" d="M 23.887501 45.887501 C 16.139376 45.887501 10 39.600998 10 32 C 10 24.251873 16.285812 18.112499 23.887501 18.112499 L 40.112499 18.112499 C 47.860626 18.112499 54 24.399002 54 32 C 54 39.748123 47.714188 45.887501 40.112499 45.887501 Z M 39.820999 40.916878 C 44.791626 40.916878 48.884312 36.824188 48.884312 31.853565 C 48.884312 26.882938 44.791626 22.790249 39.820999 22.790249 L 24.325438 22.790249 C 19.354813 22.790249 15.262125 26.882938 15.262125 31.853565 C 15.262125 36.824188 19.355499 40.916878 24.325438 40.916878 Z"/>
</svg>
